<svg width="32" height="32" viewBox="0 0 32 32" fill="none" xmlns="http://www.w3.org/2000/svg">
<mask id="mask0_2290_5045" style="mask-type:alpha" maskUnits="userSpaceOnUse" x="0" y="0" width="32" height="32">
<rect width="32" height="32" fill="#1AE5BE"/>
</mask>
<g mask="url(#mask0_2290_5045)">
<path d="M7.99967 29.3334C7.26634 29.3334 6.63856 29.0722 6.11634 28.55C5.59412 28.0278 5.33301 27.4 5.33301 26.6667V24.0334C5.33301 23.5889 5.43301 23.1778 5.63301 22.8C5.83301 22.4222 6.09967 22.1 6.43301 21.8334C7.96634 20.5889 9.11634 19.3334 9.88301 18.0667C10.6497 16.8 11.1886 15.6667 11.4997 14.6667H9.33301C8.95523 14.6667 8.63856 14.5389 8.38301 14.2834C8.12745 14.0278 7.99967 13.7111 7.99967 13.3334C7.99967 12.9556 8.12745 12.6389 8.38301 12.3834C8.63856 12.1278 8.95523 12 9.33301 12H10.9997C10.6886 11.5111 10.4441 10.9889 10.2663 10.4334C10.0886 9.8778 9.99967 9.28891 9.99967 8.66669C9.99967 7.00002 10.583 5.58335 11.7497 4.41669C12.9163 3.25002 14.333 2.66669 15.9997 2.66669C17.6663 2.66669 19.083 3.25002 20.2497 4.41669C21.4163 5.58335 21.9997 7.00002 21.9997 8.66669C21.9997 9.28891 21.9108 9.8778 21.733 10.4334C21.5552 10.9889 21.3108 11.5111 20.9997 12H22.6663C23.0441 12 23.3608 12.1278 23.6163 12.3834C23.8719 12.6389 23.9997 12.9556 23.9997 13.3334C23.9997 13.7111 23.8719 14.0278 23.6163 14.2834C23.3608 14.5389 23.0441 14.6667 22.6663 14.6667H20.4997C20.8108 15.6667 21.3497 16.8 22.1163 18.0667C22.883 19.3334 24.033 20.5889 25.5663 21.8334C25.8997 22.1 26.1663 22.4222 26.3663 22.8C26.5663 23.1778 26.6663 23.5889 26.6663 24.0334V26.6667C26.6663 27.4 26.4052 28.0278 25.883 28.55C25.3608 29.0722 24.733 29.3334 23.9997 29.3334H7.99967ZM7.99967 26.6667H23.9997V24C21.9552 22.4 20.4775 20.75 19.5663 19.05C18.6552 17.35 18.0441 15.8889 17.733 14.6667H14.2663C13.9552 15.8889 13.3441 17.35 12.433 19.05C11.5219 20.75 10.0441 22.4 7.99967 24V26.6667ZM15.9997 12C16.933 12 17.7219 11.6778 18.3663 11.0334C19.0108 10.3889 19.333 9.60002 19.333 8.66669C19.333 7.73335 19.0108 6.94446 18.3663 6.30002C17.7219 5.65558 16.933 5.33335 15.9997 5.33335C15.0663 5.33335 14.2775 5.65558 13.633 6.30002C12.9886 6.94446 12.6663 7.73335 12.6663 8.66669C12.6663 9.60002 12.9886 10.3889 13.633 11.0334C14.2775 11.6778 15.0663 12 15.9997 12Z" fill="#1AE5BE"/>
</g>
</svg>
