<svg width="32" height="32" viewBox="0 0 32 32" fill="none" xmlns="http://www.w3.org/2000/svg">
<mask id="mask0_8636_3812" style="mask-type:alpha" maskUnits="userSpaceOnUse" x="0" y="0" width="32" height="32">
<rect width="32" height="32" fill="#D9D9D9"/>
</mask>
<g mask="url(#mask0_8636_3812)">
<path d="M16.0003 29.3334C14.1781 29.3334 12.4559 28.9834 10.8337 28.2834C9.21144 27.5834 7.79477 26.6278 6.58366 25.4167C5.37255 24.2056 4.41699 22.7889 3.71699 21.1667C3.01699 19.5445 2.66699 17.8222 2.66699 16C2.66699 14.1556 3.0281 12.4222 3.75033 10.8C4.47255 9.1778 5.45033 7.76669 6.68366 6.56669C7.91699 5.36669 9.35588 4.41669 11.0003 3.71669C12.6448 3.01669 14.4003 2.66669 16.267 2.66669C18.0448 2.66669 19.7225 2.97224 21.3003 3.58335C22.8781 4.19446 24.2614 5.03891 25.4503 6.11669C26.6392 7.19446 27.5837 8.47224 28.2837 9.95002C28.9837 11.4278 29.3337 13.0222 29.3337 14.7334C29.3337 17.2889 28.5559 19.25 27.0003 20.6167C25.4448 21.9834 23.5559 22.6667 21.3337 22.6667H18.867C18.667 22.6667 18.5281 22.7222 18.4503 22.8334C18.3725 22.9445 18.3337 23.0667 18.3337 23.2C18.3337 23.4667 18.5003 23.85 18.8337 24.35C19.167 24.85 19.3337 25.4222 19.3337 26.0667C19.3337 27.1778 19.0281 28 18.417 28.5334C17.8059 29.0667 17.0003 29.3334 16.0003 29.3334ZM8.66699 17.3334C9.24477 17.3334 9.72255 17.1445 10.1003 16.7667C10.4781 16.3889 10.667 15.9111 10.667 15.3334C10.667 14.7556 10.4781 14.2778 10.1003 13.9C9.72255 13.5222 9.24477 13.3334 8.66699 13.3334C8.08921 13.3334 7.61144 13.5222 7.23366 13.9C6.85588 14.2778 6.66699 14.7556 6.66699 15.3334C6.66699 15.9111 6.85588 16.3889 7.23366 16.7667C7.61144 17.1445 8.08921 17.3334 8.66699 17.3334ZM12.667 12C13.2448 12 13.7225 11.8111 14.1003 11.4334C14.4781 11.0556 14.667 10.5778 14.667 10C14.667 9.42224 14.4781 8.94446 14.1003 8.56669C13.7225 8.18891 13.2448 8.00002 12.667 8.00002C12.0892 8.00002 11.6114 8.18891 11.2337 8.56669C10.8559 8.94446 10.667 9.42224 10.667 10C10.667 10.5778 10.8559 11.0556 11.2337 11.4334C11.6114 11.8111 12.0892 12 12.667 12ZM19.3337 12C19.9114 12 20.3892 11.8111 20.767 11.4334C21.1448 11.0556 21.3337 10.5778 21.3337 10C21.3337 9.42224 21.1448 8.94446 20.767 8.56669C20.3892 8.18891 19.9114 8.00002 19.3337 8.00002C18.7559 8.00002 18.2781 8.18891 17.9003 8.56669C17.5225 8.94446 17.3337 9.42224 17.3337 10C17.3337 10.5778 17.5225 11.0556 17.9003 11.4334C18.2781 11.8111 18.7559 12 19.3337 12ZM23.3337 17.3334C23.9114 17.3334 24.3892 17.1445 24.767 16.7667C25.1448 16.3889 25.3337 15.9111 25.3337 15.3334C25.3337 14.7556 25.1448 14.2778 24.767 13.9C24.3892 13.5222 23.9114 13.3334 23.3337 13.3334C22.7559 13.3334 22.2781 13.5222 21.9003 13.9C21.5225 14.2778 21.3337 14.7556 21.3337 15.3334C21.3337 15.9111 21.5225 16.3889 21.9003 16.7667C22.2781 17.1445 22.7559 17.3334 23.3337 17.3334ZM16.0003 26.6667C16.2003 26.6667 16.3614 26.6111 16.4837 26.5C16.6059 26.3889 16.667 26.2445 16.667 26.0667C16.667 25.7556 16.5003 25.3889 16.167 24.9667C15.8337 24.5445 15.667 23.9111 15.667 23.0667C15.667 22.1334 15.9892 21.3889 16.6337 20.8334C17.2781 20.2778 18.067 20 19.0003 20H21.3337C22.8003 20 24.0559 19.5722 25.1003 18.7167C26.1448 17.8611 26.667 16.5334 26.667 14.7334C26.667 12.0445 25.6392 9.80558 23.5837 8.01669C21.5281 6.2278 19.0892 5.33335 16.267 5.33335C13.2448 5.33335 10.667 6.36669 8.53366 8.43335C6.40033 10.5 5.33366 13.0222 5.33366 16C5.33366 18.9556 6.37255 21.4722 8.45033 23.55C10.5281 25.6278 13.0448 26.6667 16.0003 26.6667Z" fill="#DA1EBA"/>
</g>
</svg>
