<svg width="32" height="32" viewBox="0 0 32 32" fill="none" xmlns="http://www.w3.org/2000/svg">
<mask id="mask0_2290_5054" style="mask-type:alpha" maskUnits="userSpaceOnUse" x="0" y="0" width="32" height="32">
<rect width="32" height="32" fill="#0635C9"/>
</mask>
<g mask="url(#mask0_2290_5054)">
<path d="M5.30046 26.4L4.16712 25.9333C3.47823 25.6444 3.01712 25.1444 2.78379 24.4333C2.55046 23.7222 2.58934 23.0222 2.90046 22.3333L5.30046 17.1333V26.4ZM10.6338 29.3333C9.90046 29.3333 9.27268 29.0722 8.75046 28.5499C8.22823 28.0277 7.96712 27.4 7.96712 26.6666V18.6666L11.5005 28.4666C11.5671 28.6222 11.6338 28.7722 11.7005 28.9166C11.7671 29.0611 11.856 29.1999 11.9671 29.3333H10.6338ZM17.5005 29.1999C16.7893 29.4666 16.1005 29.4333 15.4338 29.1C14.7671 28.7666 14.3005 28.2444 14.0338 27.5333L8.10046 11.2666C7.83379 10.5555 7.85601 9.86106 8.16712 9.18328C8.47823 8.50551 8.98935 8.04439 9.70046 7.79995L19.7671 4.13328C20.4782 3.86662 21.1671 3.89995 21.8338 4.23328C22.5005 4.56662 22.9671 5.08884 23.2338 5.79995L29.1671 22.0666C29.4338 22.7777 29.4116 23.4722 29.1005 24.15C28.7893 24.8277 28.2782 25.2888 27.5671 25.5333L17.5005 29.1999ZM14.6338 13.3333C15.0116 13.3333 15.3282 13.2055 15.5838 12.95C15.8393 12.6944 15.9671 12.3777 15.9671 12C15.9671 11.6222 15.8393 11.3055 15.5838 11.0499C15.3282 10.7944 15.0116 10.6666 14.6338 10.6666C14.256 10.6666 13.9393 10.7944 13.6838 11.0499C13.4282 11.3055 13.3005 11.6222 13.3005 12C13.3005 12.3777 13.4282 12.6944 13.6838 12.95C13.9393 13.2055 14.256 13.3333 14.6338 13.3333ZM16.5671 26.6666L26.6338 23L20.7005 6.66662L10.6338 10.3333L16.5671 26.6666Z" fill="#0635C9"/>
</g>
</svg>
