<svg width="154" height="44" viewBox="0 0 154 44" fill="none" xmlns="http://www.w3.org/2000/svg">
<path d="M60.6662 19V16.624C61.3849 16.624 62.0596 16.492 62.6902 16.228C63.3209 15.9493 63.8709 15.568 64.3402 15.084C64.8096 14.6 65.1762 14.0353 65.4402 13.39C65.7042 12.7446 65.8362 12.048 65.8362 11.3C65.8362 10.552 65.7042 9.85531 65.4402 9.20998C65.1762 8.56464 64.8096 7.99998 64.3402 7.51598C63.8709 7.03198 63.3209 6.65798 62.6902 6.39398C62.0596 6.11531 61.3849 5.97598 60.6662 5.97598V3.59998C62.1769 3.59998 63.5116 3.92998 64.6702 4.58998C65.8436 5.23531 66.7602 6.13731 67.4202 7.29598C68.0949 8.45464 68.4322 9.78931 68.4322 11.3C68.4322 12.796 68.0949 14.1233 67.4202 15.282C66.7602 16.4406 65.8436 17.35 64.6702 18.01C63.5116 18.67 62.1769 19 60.6662 19ZM57.4762 19V16.624H60.6662V19H57.4762ZM55.8262 19V3.59998H58.3782V19H55.8262ZM57.4762 5.97598V3.59998H60.6662V5.97598H57.4762Z" fill="#124658"/>
<path d="M75.2591 19.264C74.1884 19.264 73.2351 19.022 72.3991 18.538C71.5631 18.0393 70.9105 17.3573 70.4411 16.492C69.9718 15.6266 69.7371 14.6293 69.7371 13.5C69.7371 12.3706 69.9791 11.3733 70.4631 10.508C70.9471 9.64264 71.6071 8.96798 72.4431 8.48398C73.2791 7.98531 74.2471 7.73598 75.3471 7.73598C76.3151 7.73598 77.1951 7.99264 77.9871 8.50598C78.7791 9.00464 79.4025 9.73064 79.8571 10.684C80.3265 11.6373 80.5611 12.774 80.5611 14.094H78.0751C78.0898 13.1406 77.9798 12.356 77.7451 11.74C77.5251 11.124 77.2025 10.6693 76.7771 10.376C76.3518 10.068 75.8458 9.91398 75.2591 9.91398C74.6431 9.91398 74.1151 10.0533 73.6751 10.332C73.2498 10.6106 72.9198 11.0213 72.6851 11.564C72.4505 12.092 72.3331 12.7593 72.3331 13.566C72.3331 14.2846 72.4725 14.9006 72.7511 15.414C73.0298 15.9273 73.4038 16.3233 73.8731 16.602C74.3571 16.866 74.8925 16.998 75.4791 16.998C76.1245 16.998 76.6598 16.8513 77.0851 16.558C77.5105 16.25 77.8405 15.8613 78.0751 15.392L80.3411 16.36C80.0331 16.9466 79.6445 17.46 79.1751 17.9C78.7058 18.34 78.1411 18.6773 77.4811 18.912C76.8211 19.1466 76.0805 19.264 75.2591 19.264ZM71.3431 14.094L71.3651 12.136H79.2851V14.094H71.3431Z" fill="#124658"/>
<path d="M85.2684 19L89.5584 7.99998H92.1104L87.5784 19H85.2684ZM85.0924 19L80.5384 7.99998H83.0684L87.3804 19H85.0924Z" fill="#124658"/>
<path d="M97.9475 19.264C96.8768 19.264 95.9235 19.022 95.0875 18.538C94.2515 18.0393 93.5988 17.3573 93.1295 16.492C92.6601 15.6266 92.4255 14.6293 92.4255 13.5C92.4255 12.3706 92.6675 11.3733 93.1515 10.508C93.6355 9.64264 94.2955 8.96798 95.1315 8.48398C95.9675 7.98531 96.9355 7.73598 98.0355 7.73598C99.0035 7.73598 99.8835 7.99264 100.675 8.50598C101.467 9.00464 102.091 9.73064 102.545 10.684C103.015 11.6373 103.249 12.774 103.249 14.094H100.763C100.778 13.1406 100.668 12.356 100.433 11.74C100.213 11.124 99.8908 10.6693 99.4655 10.376C99.0401 10.068 98.5341 9.91398 97.9475 9.91398C97.3315 9.91398 96.8035 10.0533 96.3635 10.332C95.9381 10.6106 95.6081 11.0213 95.3735 11.564C95.1388 12.092 95.0215 12.7593 95.0215 13.566C95.0215 14.2846 95.1608 14.9006 95.4395 15.414C95.7181 15.9273 96.0921 16.3233 96.5615 16.602C97.0455 16.866 97.5808 16.998 98.1675 16.998C98.8128 16.998 99.3481 16.8513 99.7735 16.558C100.199 16.25 100.529 15.8613 100.763 15.392L103.029 16.36C102.721 16.9466 102.333 17.46 101.863 17.9C101.394 18.34 100.829 18.6773 100.169 18.912C99.5095 19.1466 98.7688 19.264 97.9475 19.264ZM94.0315 14.094L94.0535 12.136H101.973V14.094H94.0315Z" fill="#124658"/>
<path d="M104.823 19L104.845 3.59998H107.309L107.287 19H104.823Z" fill="#124658"/>
<path d="M114.818 19.264C113.703 19.264 112.713 19.022 111.848 18.538C110.997 18.0393 110.33 17.3573 109.846 16.492C109.362 15.6266 109.12 14.6293 109.12 13.5C109.12 12.3706 109.354 11.3733 109.824 10.508C110.308 9.64264 110.975 8.96798 111.826 8.48398C112.691 7.98531 113.674 7.73598 114.774 7.73598C115.888 7.73598 116.871 7.98531 117.722 8.48398C118.572 8.96798 119.24 9.64264 119.724 10.508C120.208 11.3733 120.45 12.3706 120.45 13.5C120.45 14.6293 120.208 15.6266 119.724 16.492C119.24 17.3573 118.572 18.0393 117.722 18.538C116.886 19.022 115.918 19.264 114.818 19.264ZM114.818 16.888C115.404 16.888 115.918 16.7486 116.358 16.47C116.812 16.1766 117.164 15.7733 117.414 15.26C117.678 14.7466 117.81 14.16 117.81 13.5C117.81 12.84 117.678 12.2533 117.414 11.74C117.164 11.2266 116.805 10.8306 116.336 10.552C115.881 10.2586 115.36 10.112 114.774 10.112C114.187 10.112 113.666 10.2586 113.212 10.552C112.757 10.8306 112.398 11.2266 112.134 11.74C111.884 12.2533 111.76 12.84 111.76 13.5C111.76 14.16 111.884 14.7466 112.134 15.26C112.398 15.7733 112.757 16.1766 113.212 16.47C113.681 16.7486 114.216 16.888 114.818 16.888Z" fill="#124658"/>
<path d="M122.358 23.4V7.99998H124.668L124.822 10.024V23.4H122.358ZM128.298 19.264C127.374 19.264 126.574 19.0293 125.9 18.56C125.24 18.076 124.734 17.4013 124.382 16.536C124.03 15.6706 123.854 14.6586 123.854 13.5C123.854 12.3266 124.03 11.3146 124.382 10.464C124.734 9.59864 125.24 8.93131 125.9 8.46198C126.574 7.97798 127.374 7.73598 128.298 7.73598C129.295 7.73598 130.16 7.97798 130.894 8.46198C131.642 8.93131 132.221 9.59864 132.632 10.464C133.057 11.3146 133.27 12.3266 133.27 13.5C133.27 14.6586 133.057 15.6706 132.632 16.536C132.221 17.4013 131.642 18.076 130.894 18.56C130.16 19.0293 129.295 19.264 128.298 19.264ZM127.682 17.02C128.268 17.02 128.789 16.8733 129.244 16.58C129.698 16.272 130.058 15.854 130.322 15.326C130.6 14.798 130.74 14.1893 130.74 13.5C130.74 12.8106 130.608 12.202 130.344 11.674C130.094 11.146 129.742 10.7353 129.288 10.442C128.833 10.1486 128.305 10.002 127.704 10.002C127.146 10.002 126.648 10.1486 126.208 10.442C125.768 10.7353 125.423 11.146 125.174 11.674C124.939 12.202 124.822 12.8106 124.822 13.5C124.822 14.1893 124.939 14.798 125.174 15.326C125.423 15.854 125.76 16.272 126.186 16.58C126.626 16.8733 127.124 17.02 127.682 17.02Z" fill="#124658"/>
<path d="M139.973 19.264C138.902 19.264 137.949 19.022 137.113 18.538C136.277 18.0393 135.624 17.3573 135.155 16.492C134.685 15.6266 134.451 14.6293 134.451 13.5C134.451 12.3706 134.693 11.3733 135.177 10.508C135.661 9.64264 136.321 8.96798 137.157 8.48398C137.993 7.98531 138.961 7.73598 140.061 7.73598C141.029 7.73598 141.909 7.99264 142.701 8.50598C143.493 9.00464 144.116 9.73064 144.571 10.684C145.04 11.6373 145.275 12.774 145.275 14.094H142.789C142.803 13.1406 142.693 12.356 142.459 11.74C142.239 11.124 141.916 10.6693 141.491 10.376C141.065 10.068 140.559 9.91398 139.973 9.91398C139.357 9.91398 138.829 10.0533 138.389 10.332C137.963 10.6106 137.633 11.0213 137.399 11.564C137.164 12.092 137.047 12.7593 137.047 13.566C137.047 14.2846 137.186 14.9006 137.465 15.414C137.743 15.9273 138.117 16.3233 138.587 16.602C139.071 16.866 139.606 16.998 140.193 16.998C140.838 16.998 141.373 16.8513 141.799 16.558C142.224 16.25 142.554 15.8613 142.789 15.392L145.055 16.36C144.747 16.9466 144.358 17.46 143.889 17.9C143.419 18.34 142.855 18.6773 142.195 18.912C141.535 19.1466 140.794 19.264 139.973 19.264ZM136.057 14.094L136.079 12.136H143.999V14.094H136.057Z" fill="#124658"/>
<path d="M148.476 13.148C148.476 11.96 148.703 10.9846 149.158 10.222C149.613 9.45931 150.199 8.89464 150.918 8.52798C151.651 8.14664 152.414 7.95598 153.206 7.95598V10.31C152.531 10.31 151.893 10.4053 151.292 10.596C150.705 10.772 150.229 11.0653 149.862 11.476C149.495 11.8866 149.312 12.4293 149.312 13.104L148.476 13.148ZM146.848 19V7.99998H149.312V19H146.848Z" fill="#124658"/>
<path d="M66.4962 40L60.4902 24.6H63.0422L69.2022 40H66.4962ZM54.1982 40L60.3362 24.6H62.9102L56.9042 40H54.1982ZM57.0802 36.216V33.95H66.2982V36.216H57.0802Z" fill="#124658"/>
<path d="M72.6611 36.92L71.1651 35.226L76.8851 29H79.8551L72.6611 36.92ZM70.3071 40V24.6H72.7711V40H70.3071ZM77.3031 40L73.4311 34.302L75.0371 32.586L80.2291 40H77.3031Z" fill="#124658"/>
<path d="M87.5786 40L87.4686 34.346C87.4686 33.598 87.3879 32.9746 87.2266 32.476C87.0653 31.9773 86.8159 31.596 86.4786 31.332C86.1413 31.068 85.6866 30.936 85.1146 30.936C84.6013 30.936 84.1466 31.046 83.7506 31.266C83.3546 31.486 83.0246 31.8233 82.7606 32.278L80.5606 31.508C80.8099 31.024 81.1326 30.5693 81.5286 30.144C81.9246 29.7186 82.4233 29.3813 83.0246 29.132C83.6259 28.868 84.3446 28.736 85.1806 28.736C86.2366 28.736 87.1166 28.934 87.8206 29.33C88.5393 29.726 89.0746 30.3126 89.4266 31.09C89.7786 31.8673 89.9546 32.828 89.9546 33.972V40H87.5786ZM84.4546 40.264C83.1493 40.264 82.1299 39.9706 81.3966 39.384C80.6779 38.7973 80.3186 37.9686 80.3186 36.898C80.3186 35.754 80.6999 34.8813 81.4626 34.28C82.2399 33.6786 83.3179 33.378 84.6966 33.378H88.1506L88.1726 35.27H85.4666C84.4839 35.27 83.7946 35.4093 83.3986 35.688C83.0173 35.952 82.8266 36.3333 82.8266 36.832C82.8266 37.2573 82.9953 37.5946 83.3326 37.844C83.6846 38.0786 84.1686 38.196 84.7846 38.196C85.3273 38.196 85.7966 38.0713 86.1926 37.822C86.6033 37.558 86.9186 37.2206 87.1386 36.81C87.3586 36.3846 87.4686 35.93 87.4686 35.446H88.3926C88.3926 36.942 88.0699 38.1226 87.4246 38.988C86.7939 39.8386 85.8039 40.264 84.4546 40.264Z" fill="#124658"/>
<path d="M99.9706 40L99.8606 37.954V24.6H102.303V40H99.9706ZM96.3846 40.264C95.3873 40.264 94.5146 40.0293 93.7666 39.56C93.0333 39.076 92.4539 38.4013 92.0286 37.536C91.6179 36.6706 91.4126 35.6586 91.4126 34.5C91.4126 33.3266 91.6179 32.3146 92.0286 31.464C92.4539 30.5986 93.0333 29.9313 93.7666 29.462C94.5146 28.978 95.3873 28.736 96.3846 28.736C97.3086 28.736 98.1006 28.978 98.7606 29.462C99.4353 29.9313 99.9486 30.5986 100.301 31.464C100.653 32.3146 100.829 33.3266 100.829 34.5C100.829 35.6586 100.653 36.6706 100.301 37.536C99.9486 38.4013 99.4353 39.076 98.7606 39.56C98.1006 40.0293 97.3086 40.264 96.3846 40.264ZM97.0006 38.02C97.5579 38.02 98.0493 37.8733 98.4746 37.58C98.9146 37.272 99.2519 36.854 99.4866 36.326C99.7359 35.798 99.8606 35.1893 99.8606 34.5C99.8606 33.8106 99.7359 33.202 99.4866 32.674C99.2519 32.146 98.9146 31.7353 98.4746 31.442C98.0493 31.1486 97.5506 31.002 96.9786 31.002C96.3919 31.002 95.8713 31.1486 95.4166 31.442C94.9619 31.7353 94.6026 32.146 94.3386 32.674C94.0893 33.202 93.9573 33.8106 93.9426 34.5C93.9573 35.1893 94.0893 35.798 94.3386 36.326C94.6026 36.854 94.9619 37.272 95.4166 37.58C95.8859 37.8733 96.4139 38.02 97.0006 38.02Z" fill="#124658"/>
<path d="M109.625 40.264C108.554 40.264 107.601 40.022 106.765 39.538C105.929 39.0393 105.276 38.3573 104.807 37.492C104.337 36.6266 104.103 35.6293 104.103 34.5C104.103 33.3706 104.345 32.3733 104.829 31.508C105.313 30.6426 105.973 29.968 106.809 29.484C107.645 28.9853 108.613 28.736 109.713 28.736C110.681 28.736 111.561 28.9926 112.353 29.506C113.145 30.0046 113.768 30.7306 114.223 31.684C114.692 32.6373 114.927 33.774 114.927 35.094H112.441C112.455 34.1406 112.345 33.356 112.111 32.74C111.891 32.124 111.568 31.6693 111.143 31.376C110.717 31.068 110.211 30.914 109.625 30.914C109.009 30.914 108.481 31.0533 108.041 31.332C107.615 31.6106 107.285 32.0213 107.051 32.564C106.816 33.092 106.699 33.7593 106.699 34.566C106.699 35.2846 106.838 35.9006 107.117 36.414C107.395 36.9273 107.769 37.3233 108.239 37.602C108.723 37.866 109.258 37.998 109.845 37.998C110.49 37.998 111.025 37.8513 111.451 37.558C111.876 37.25 112.206 36.8613 112.441 36.392L114.707 37.36C114.399 37.9466 114.01 38.46 113.541 38.9C113.071 39.34 112.507 39.6773 111.847 39.912C111.187 40.1466 110.446 40.264 109.625 40.264ZM105.709 35.094L105.731 33.136H113.651V35.094H105.709Z" fill="#124658"/>
<path d="M116.5 40V29H118.81L118.964 31.024V40H116.5ZM123.958 40V34.368L126.422 33.708V40H123.958ZM131.438 40V34.368L133.88 33.708V40H131.438ZM123.958 34.368C123.958 33.488 123.856 32.8133 123.65 32.344C123.46 31.86 123.181 31.5226 122.814 31.332C122.462 31.1413 122.044 31.046 121.56 31.046C120.739 31.0313 120.101 31.3026 119.646 31.86C119.192 32.4173 118.964 33.2166 118.964 34.258H118.04C118.04 33.0993 118.209 32.1093 118.546 31.288C118.884 30.452 119.368 29.8213 119.998 29.396C120.629 28.956 121.377 28.736 122.242 28.736C123.577 28.736 124.604 29.1466 125.322 29.968C126.056 30.7746 126.422 32.0213 126.422 33.708L123.958 34.368ZM131.438 34.368C131.438 33.488 131.336 32.8133 131.13 32.344C130.925 31.86 130.639 31.5226 130.272 31.332C129.92 31.1413 129.51 31.046 129.04 31.046C128.204 31.0313 127.559 31.3026 127.104 31.86C126.65 32.4173 126.422 33.2166 126.422 34.258H125.498C125.498 33.0993 125.667 32.1093 126.004 31.288C126.342 30.452 126.826 29.8213 127.456 29.396C128.087 28.956 128.835 28.736 129.7 28.736C131.035 28.736 132.069 29.1466 132.802 29.968C133.536 30.7746 133.895 32.0213 133.88 33.708L131.438 34.368Z" fill="#124658"/>
<path d="M136.109 40L136.131 29H138.573L138.551 40H136.109ZM137.341 26.91C136.945 26.91 136.6 26.7706 136.307 26.492C136.028 26.1986 135.889 25.854 135.889 25.458C135.889 25.062 136.028 24.7246 136.307 24.446C136.6 24.1673 136.945 24.028 137.341 24.028C137.737 24.028 138.074 24.1673 138.353 24.446C138.646 24.7246 138.793 25.062 138.793 25.458C138.793 25.854 138.646 26.1986 138.353 26.492C138.074 26.7706 137.737 26.91 137.341 26.91Z" fill="#124658"/>
<path d="M146.053 40.264C144.982 40.264 144.029 40.022 143.193 39.538C142.357 39.0393 141.704 38.3573 141.235 37.492C140.765 36.6266 140.531 35.6293 140.531 34.5C140.531 33.3706 140.773 32.3733 141.257 31.508C141.741 30.6426 142.401 29.968 143.237 29.484C144.073 28.9853 145.041 28.736 146.141 28.736C147.109 28.736 147.989 28.9926 148.781 29.506C149.573 30.0046 150.196 30.7306 150.651 31.684C151.12 32.6373 151.355 33.774 151.355 35.094H148.869C148.883 34.1406 148.773 33.356 148.539 32.74C148.319 32.124 147.996 31.6693 147.571 31.376C147.145 31.068 146.639 30.914 146.053 30.914C145.437 30.914 144.909 31.0533 144.469 31.332C144.043 31.6106 143.713 32.0213 143.479 32.564C143.244 33.092 143.127 33.7593 143.127 34.566C143.127 35.2846 143.266 35.9006 143.545 36.414C143.823 36.9273 144.197 37.3233 144.667 37.602C145.151 37.866 145.686 37.998 146.273 37.998C146.918 37.998 147.453 37.8513 147.879 37.558C148.304 37.25 148.634 36.8613 148.869 36.392L151.135 37.36C150.827 37.9466 150.438 38.46 149.969 38.9C149.499 39.34 148.935 39.6773 148.275 39.912C147.615 40.1466 146.874 40.264 146.053 40.264ZM142.137 35.094L142.159 33.136H150.079V35.094H142.137Z" fill="#124658"/>
<path d="M23.3311 27.0299C23.3406 27.0929 23.3796 27.1476 23.4361 27.1772C23.4925 27.2067 23.5597 27.2076 23.617 27.1795L31.9549 23.0864C32.0078 23.0604 32.0466 23.0125 32.0608 22.9553C32.1661 22.5331 32.2002 22.1144 32.2002 21.6629C32.2002 21.1637 32.131 20.7085 32.0641 20.3059C32.0534 20.2419 32.0125 20.1871 31.9542 20.1588L23.6163 16.1058C23.5595 16.0782 23.4931 16.079 23.437 16.108C23.381 16.137 23.3419 16.1907 23.3315 16.2529L23.3303 16.2603C23.2986 16.4511 23.2639 16.6596 23.2622 16.8712C23.2287 17.0846 23.2288 17.3321 23.2288 17.5594V17.5698C23.2288 17.6547 23.2369 17.7478 23.2446 17.8346L23.2462 17.8531C23.2546 17.9489 23.2621 18.0411 23.2621 18.1316C23.2621 18.1426 23.263 18.1536 23.2648 18.1644C23.2794 18.2518 23.2871 18.34 23.2952 18.4329L23.2962 18.445C23.3044 18.5383 23.3135 18.6404 23.333 18.7341C23.3461 18.797 23.3886 18.8499 23.4474 18.8761L29.6162 21.6264L23.4446 24.4911C23.3873 24.5177 23.3459 24.5699 23.333 24.6318C23.2995 24.7932 23.2639 25.0028 23.2622 25.2178C23.2288 25.4293 23.2288 25.6393 23.2288 25.8672V25.8764C23.2288 26.2109 23.2635 26.5828 23.3311 27.0299Z" fill="#FD5B4F"/>
<path fill-rule="evenodd" clip-rule="evenodd" d="M20.5642 11.8228C20.6206 11.8524 20.6597 11.9071 20.6692 11.9701C20.7367 12.4172 20.7715 12.789 20.7715 13.1236V13.1329C20.7715 13.3608 20.7715 13.5707 20.7381 13.7822C20.7363 13.9972 20.7008 14.2067 20.6672 14.3681C20.6544 14.43 20.613 14.4822 20.5556 14.5089L14.384 17.3735L20.5529 20.1239C20.6116 20.1501 20.6542 20.2029 20.6672 20.2659C20.6867 20.3596 20.6959 20.4617 20.704 20.555L20.7051 20.567C20.7132 20.6599 20.7209 20.7481 20.7354 20.8356C20.7372 20.8464 20.7381 20.8574 20.7381 20.8684C20.7381 20.9588 20.7457 21.0511 20.754 21.1469L20.7557 21.1653C20.7633 21.2521 20.7715 21.3452 20.7715 21.4302V21.4406C20.7715 21.6679 20.7715 21.9154 20.7381 22.1288C20.7363 22.3404 20.7017 22.5488 20.67 22.7396L20.6687 22.7471C20.6584 22.8093 20.6193 22.863 20.5632 22.892C20.5072 22.9209 20.4407 22.9217 20.384 22.8941L12.046 18.8412C11.9877 18.8128 11.9468 18.758 11.9362 18.6941C11.8692 18.2915 11.8 17.8363 11.8 17.3371C11.8 16.8855 11.8341 16.4669 11.9394 16.0447C11.9537 15.9875 11.9924 15.9395 12.0453 15.9136L20.3833 11.8205C20.4405 11.7924 20.5077 11.7932 20.5642 11.8228Z" fill="#FD5B4F"/>
<path fill-rule="evenodd" clip-rule="evenodd" d="M39 4.5H5C2.51472 4.5 0.5 6.51472 0.5 9V30C0.5 32.4853 2.51472 34.5 5 34.5H39C41.4853 34.5 43.5 32.4853 43.5 30V9C43.5 6.51472 41.4853 4.5 39 4.5ZM3 9C3 7.89543 3.89543 7 5 7H39C40.1046 7 41 7.89543 41 9V30C41 31.1046 40.1046 32 39 32H5C3.89543 32 3 31.1046 3 30V9Z" fill="#FD5B4F"/>
<path d="M5.25 37C4.55964 37 4 37.5596 4 38.25C4 38.9404 4.55964 39.5 5.25 39.5H38.75C39.4404 39.5 40 38.9404 40 38.25C40 37.5596 39.4404 37 38.75 37H5.25Z" fill="#FD5B4F"/>
</svg>
